solid Con-Rod-1 in claw
   facet normal -1.635643e-017 -7.124003e-001 -7.017733e-001
      outer loop
         vertex -1.370172e+000 -4.848075e+000 -7.085170e+000
         vertex -1.370172e+000 -5.023519e+000 -6.907070e+000
         vertex -1.495172e+000 -4.848075e+000 -7.085170e+000
      endloop
   endfacet
   facet normal -1.635643e-017 -7.124003e-001 -7.017733e-001
      outer loop
         vertex -1.495172e+000 -4.848075e+000 -7.085170e+000
         vertex -1.370172e+000 -5.023519e+000 -6.907070e+000
         vertex -1.495172e+000 -5.023519e+000 -6.907070e+000
      endloop
   endfacet
   facet normal -1.939768e-016 -7.017733e-001 7.124003e-001
      outer loop
         vertex -1.495172e+000 -2.134885e-001 -1.993329e+000
         vertex -1.495172e+000 -5.022191e+000 -6.730299e+000
         vertex -1.370172e+000 -2.134885e-001 -1.993329e+000
      endloop
   endfacet
   facet normal -1.939768e-016 -7.017733e-001 7.124003e-001
      outer loop
         vertex -1.370172e+000 -2.134885e-001 -1.993329e+000
         vertex -1.495172e+000 -5.022191e+000 -6.730299e+000
         vertex -1.370172e+000 -5.022191e+000 -6.730299e+000
      endloop
   endfacet
   facet normal 1.635643e-017 7.124003e-001 7.017733e-001
      outer loop
         vertex -1.495172e+000 1.387267e-001 -2.172757e+000
         vertex -1.495172e+000 -3.671665e-002 -1.994657e+000
         vertex -1.370172e+000 1.387267e-001 -2.172757e+000
      endloop
   endfacet
   facet normal 1.635643e-017 7.124003e-001 7.017733e-001
      outer loop
         vertex -1.370172e+000 1.387267e-001 -2.172757e+000
         vertex -1.495172e+000 -3.671665e-002 -1.994657e+000
         vertex -1.370172e+000 -3.671665e-002 -1.994657e+000
      endloop
   endfacet
   facet normal 1.939768e-016 7.017733e-001 -7.124003e-001
      outer loop
         vertex -1.370172e+000 1.373982e-001 -2.349529e+000
         vertex -1.370172e+000 -4.671304e+000 -7.086498e+000
         vertex -1.495172e+000 1.373982e-001 -2.349529e+000
      endloop
   endfacet
   facet normal 1.939768e-016 7.017733e-001 -7.124003e-001
      outer loop
         vertex -1.495172e+000 1.373982e-001 -2.349529e+000
         vertex -1.370172e+000 -4.671304e+000 -7.086498e+000
         vertex -1.495172e+000 -4.671304e+000 -7.086498e+000
      endloop
   endfacet
   facet normal -1.000000e+000 1.477800e-016 -1.267106e-016
      outer loop
         vertex -1.495172e+000 -4.782974e+000 -6.912252e+000
         vertex -1.495172e+000 -4.733799e+000 -6.912622e+000
         vertex -1.495172e+000 -4.671304e+000 -7.086498e+000
      endloop
   endfacet
   facet normal -1.000000e+000 1.477800e-016 -1.267106e-016
      outer loop
         vertex -1.495172e+000 -4.671304e+000 -7.086498e+000
         vertex -1.495172e+000 -4.733799e+000 -6.912622e+000
         vertex -1.495172e+000 -4.691029e+000 -6.888355e+000
      endloop
   endfacet
   facet normal -1.000000e+000 1.477800e-016 -1.267106e-016
      outer loop
         vertex -1.495172e+000 -4.671304e+000 -7.086498e+000
         vertex -1.495172e+000 -4.691029e+000 -6.888355e+000
         vertex -1.495172e+000 -7.992869e-002 -2.440621e+000
      endloop
   endfacet
   facet normal -1.000000e+000 1.477800e-016 -1.267106e-016
      outer loop
         vertex -1.495172e+000 -7.992869e-002 -2.440621e+000
         vertex -1.495172e+000 -4.691029e+000 -6.888355e+000
         vertex -1.495172e+000 -4.666121e+000 -6.845953e+000
      endloop
   endfacet
   facet normal -1.000000e+000 1.477800e-016 -1.267106e-016
      outer loop
         vertex -1.495172e+000 -7.992869e-002 -2.440621e+000
         vertex -1.495172e+000 -4.666121e+000 -6.845953e+000
         vertex -1.495172e+000 -4.665752e+000 -6.796779e+000
      endloop
   endfacet
   facet normal -1.000000e+000 1.477800e-016 -1.267106e-016
      outer loop
         vertex -1.495172e+000 -4.781595e+000 -6.728732e+000
         vertex -1.495172e+000 -4.824366e+000 -6.752999e+000
         vertex -1.495172e+000 -5.022191e+000 -6.730299e+000
      endloop
   endfacet
   facet normal -1.000000e+000 1.477800e-016 -1.267106e-016
      outer loop
         vertex -1.495172e+000 -5.022191e+000 -6.730299e+000
         vertex -1.495172e+000 -4.824366e+000 -6.752999e+000
         vertex -1.495172e+000 -4.849273e+000 -6.795400e+000
      endloop
   endfacet
   facet normal -1.000000e+000 1.477800e-016 -1.267106e-016
      outer loop
         vertex -1.495172e+000 -5.022191e+000 -6.730299e+000
         vertex -1.495172e+000 -4.849273e+000 -6.795400e+000
         vertex -1.495172e+000 -5.023519e+000 -6.907070e+000
      endloop
   endfacet
   facet normal -1.000000e+000 1.477800e-016 -1.267106e-016
      outer loop
         vertex -1.495172e+000 -5.023519e+000 -6.907070e+000
         vertex -1.495172e+000 -4.849273e+000 -6.795400e+000
         vertex -1.495172e+000 -4.849642e+000 -6.844574e+000
      endloop
   endfacet
   facet normal -1.000000e+000 1.477800e-016 -1.267106e-016
      outer loop
         vertex -1.495172e+000 -5.023519e+000 -6.907070e+000
         vertex -1.495172e+000 -4.849642e+000 -6.844574e+000
         vertex -1.495172e+000 -4.848075e+000 -7.085170e+000
      endloop
   endfacet
   facet normal -1.000000e+000 1.477800e-016 -1.267106e-016
      outer loop
         vertex -1.495172e+000 -4.848075e+000 -7.085170e+000
         vertex -1.495172e+000 -4.849642e+000 -6.844574e+000
         vertex -1.495172e+000 -4.825375e+000 -6.887345e+000
      endloop
   endfacet
   facet normal -1.000000e+000 1.477800e-016 -1.267106e-016
      outer loop
         vertex -1.495172e+000 -4.848075e+000 -7.085170e+000
         vertex -1.495172e+000 -4.825375e+000 -6.887345e+000
         vertex -1.495172e+000 -4.782974e+000 -6.912252e+000
      endloop
   endfacet
   facet normal -1.000000e+000 1.477800e-016 -1.267106e-016
      outer loop
         vertex -1.495172e+000 -4.781595e+000 -6.728732e+000
         vertex -1.495172e+000 -3.078363e-001 -2.209262e+000
         vertex -1.495172e+000 -4.732420e+000 -6.729101e+000
      endloop
   endfacet
   facet normal -1.000000e+000 1.477800e-016 -1.267106e-016
      outer loop
         vertex -1.495172e+000 -4.732420e+000 -6.729101e+000
         vertex -1.495172e+000 -3.078363e-001 -2.209262e+000
         vertex -1.495172e+000 -3.085656e-001 -2.306316e+000
      endloop
   endfacet
   facet normal -1.000000e+000 1.477800e-016 -1.267106e-016
      outer loop
         vertex -1.495172e+000 -4.732420e+000 -6.729101e+000
         vertex -1.495172e+000 -3.085656e-001 -2.306316e+000
         vertex -1.495172e+000 -4.690019e+000 -6.754008e+000
      endloop
   endfacet
   facet normal -1.000000e+000 1.477800e-016 -1.267106e-016
      outer loop
         vertex -1.495172e+000 -4.690019e+000 -6.754008e+000
         vertex -1.495172e+000 -3.085656e-001 -2.306316e+000
         vertex -1.495172e+000 -2.606700e-001 -2.390733e+000
      endloop
   endfacet
   facet normal -1.000000e+000 1.477800e-016 -1.267106e-016
      outer loop
         vertex -1.495172e+000 -4.690019e+000 -6.754008e+000
         vertex -1.495172e+000 -2.606700e-001 -2.390733e+000
         vertex -1.495172e+000 -4.665752e+000 -6.796779e+000
      endloop
   endfacet
   facet normal -1.000000e+000 1.477800e-016 -1.267106e-016
      outer loop
         vertex -1.495172e+000 -4.665752e+000 -6.796779e+000
         vertex -1.495172e+000 -2.606700e-001 -2.390733e+000
         vertex -1.495172e+000 -1.769831e-001 -2.439891e+000
      endloop
   endfacet
   facet normal -1.000000e+000 1.477800e-016 -1.267106e-016
      outer loop
         vertex -1.495172e+000 -4.665752e+000 -6.796779e+000
         vertex -1.495172e+000 -1.769831e-001 -2.439891e+000
         vertex -1.495172e+000 -7.992869e-002 -2.440621e+000
      endloop
   endfacet
   facet normal -1.000000e+000 1.477800e-016 -1.267106e-016
      outer loop
         vertex -1.495172e+000 -7.720675e-002 -2.078409e+000
         vertex -1.495172e+000 -1.742612e-001 -2.077679e+000
         vertex -1.495172e+000 -2.134885e-001 -1.993329e+000
      endloop
   endfacet
   facet normal -1.000000e+000 1.477800e-016 -1.267106e-016
      outer loop
         vertex -1.495172e+000 -2.134885e-001 -1.993329e+000
         vertex -1.495172e+000 -1.742612e-001 -2.077679e+000
         vertex -1.495172e+000 -2.586775e-001 -2.125575e+000
      endloop
   endfacet
   facet normal -1.000000e+000 1.477800e-016 -1.267106e-016
      outer loop
         vertex -1.495172e+000 -2.134885e-001 -1.993329e+000
         vertex -1.495172e+000 -2.586775e-001 -2.125575e+000
         vertex -1.495172e+000 -5.022191e+000 -6.730299e+000
      endloop
   endfacet
   facet normal -1.000000e+000 1.477800e-016 -1.267106e-016
      outer loop
         vertex -1.495172e+000 -5.022191e+000 -6.730299e+000
         vertex -1.495172e+000 -2.586775e-001 -2.125575e+000
         vertex -1.495172e+000 -3.078363e-001 -2.209262e+000
      endloop
   endfacet
   facet normal -1.000000e+000 1.477800e-016 -1.267106e-016
      outer loop
         vertex -1.495172e+000 -5.022191e+000 -6.730299e+000
         vertex -1.495172e+000 -3.078363e-001 -2.209262e+000
         vertex -1.495172e+000 -4.781595e+000 -6.728732e+000
      endloop
   endfacet
   facet normal -1.000000e+000 1.477800e-016 -1.267106e-016
      outer loop
         vertex -1.495172e+000 5.437574e-002 -2.211984e+000
         vertex -1.495172e+000 6.480129e-003 -2.127568e+000
         vertex -1.495172e+000 -3.671665e-002 -1.994657e+000
      endloop
   endfacet
   facet normal -1.000000e+000 1.477800e-016 -1.267106e-016
      outer loop
         vertex -1.495172e+000 -3.671665e-002 -1.994657e+000
         vertex -1.495172e+000 6.480129e-003 -2.127568e+000
         vertex -1.495172e+000 -7.720675e-002 -2.078409e+000
      endloop
   endfacet
   facet normal -1.000000e+000 1.477800e-016 -1.267106e-016
      outer loop
         vertex -1.495172e+000 -3.671665e-002 -1.994657e+000
         vertex -1.495172e+000 -7.720675e-002 -2.078409e+000
         vertex -1.495172e+000 -2.134885e-001 -1.993329e+000
      endloop
   endfacet
   facet normal -1.000000e+000 1.477800e-016 -1.267106e-016
      outer loop
         vertex -1.495172e+000 -7.992869e-002 -2.440621e+000
         vertex -1.495172e+000 4.487555e-003 -2.392725e+000
         vertex -1.495172e+000 1.373982e-001 -2.349529e+000
      endloop
   endfacet
   facet normal -1.000000e+000 1.477800e-016 -1.267106e-016
      outer loop
         vertex -1.495172e+000 1.373982e-001 -2.349529e+000
         vertex -1.495172e+000 4.487555e-003 -2.392725e+000
         vertex -1.495172e+000 5.364639e-002 -2.309038e+000
      endloop
   endfacet
   facet normal -1.000000e+000 1.477800e-016 -1.267106e-016
      outer loop
         vertex -1.495172e+000 1.373982e-001 -2.349529e+000
         vertex -1.495172e+000 5.364639e-002 -2.309038e+000
         vertex -1.495172e+000 1.387267e-001 -2.172757e+000
      endloop
   endfacet
   facet normal -1.000000e+000 1.477800e-016 -1.267106e-016
      outer loop
         vertex -1.495172e+000 1.387267e-001 -2.172757e+000
         vertex -1.495172e+000 5.364639e-002 -2.309038e+000
         vertex -1.495172e+000 5.437574e-002 -2.211984e+000
      endloop
   endfacet
   facet normal -1.000000e+000 1.477800e-016 -1.267106e-016
      outer loop
         vertex -1.495172e+000 1.387267e-001 -2.172757e+000
         vertex -1.495172e+000 5.437574e-002 -2.211984e+000
         vertex -1.495172e+000 -3.671665e-002 -1.994657e+000
      endloop
   endfacet
   facet normal -1.000000e+000 1.477800e-016 -1.267106e-016
      outer loop
         vertex -1.495172e+000 -4.671304e+000 -7.086498e+000
         vertex -1.495172e+000 -4.848075e+000 -7.085170e+000
         vertex -1.495172e+000 -4.782974e+000 -6.912252e+000
      endloop
   endfacet
   facet normal -1.000000e+000 1.477800e-016 -1.267106e-016
      outer loop
         vertex -1.495172e+000 1.373982e-001 -2.349529e+000
         vertex -1.495172e+000 -4.671304e+000 -7.086498e+000
         vertex -1.495172e+000 -7.992869e-002 -2.440621e+000
      endloop
   endfacet
   facet normal 1.000000e+000 -1.477800e-016 1.267106e-016
      outer loop
         vertex -1.370172e+000 -4.781595e+000 -6.728732e+000
         vertex -1.370172e+000 -4.732420e+000 -6.729101e+000
         vertex -1.370172e+000 -2.606700e-001 -2.390733e+000
      endloop
   endfacet
   facet normal 1.000000e+000 -1.477800e-016 1.267106e-016
      outer loop
         vertex -1.370172e+000 -2.606700e-001 -2.390733e+000
         vertex -1.370172e+000 -4.732420e+000 -6.729101e+000
         vertex -1.370172e+000 -4.690019e+000 -6.754008e+000
      endloop
   endfacet
   facet normal 1.000000e+000 -1.477800e-016 1.267106e-016
      outer loop
         vertex -1.370172e+000 -2.606700e-001 -2.390733e+000
         vertex -1.370172e+000 -4.690019e+000 -6.754008e+000
         vertex -1.370172e+000 -1.769831e-001 -2.439891e+000
      endloop
   endfacet
   facet normal 1.000000e+000 -1.477800e-016 1.267106e-016
      outer loop
         vertex -1.370172e+000 -1.769831e-001 -2.439891e+000
         vertex -1.370172e+000 -4.690019e+000 -6.754008e+000
         vertex -1.370172e+000 -4.665752e+000 -6.796779e+000
      endloop
   endfacet
   facet normal 1.000000e+000 -1.477800e-016 1.267106e-016
      outer loop
         vertex -1.370172e+000 -1.769831e-001 -2.439891e+000
         vertex -1.370172e+000 -4.665752e+000 -6.796779e+000
         vertex -1.370172e+000 -7.992869e-002 -2.440621e+000
      endloop
   endfacet
   facet normal 1.000000e+000 -1.477800e-016 1.267106e-016
      outer loop
         vertex -1.370172e+000 -7.992869e-002 -2.440621e+000
         vertex -1.370172e+000 -4.665752e+000 -6.796779e+000
         vertex -1.370172e+000 -4.666121e+000 -6.845953e+000
      endloop
   endfacet
   facet normal 1.000000e+000 -1.477800e-016 1.267106e-016
      outer loop
         vertex -1.370172e+000 -7.992869e-002 -2.440621e+000
         vertex -1.370172e+000 -4.666121e+000 -6.845953e+000
         vertex -1.370172e+000 -4.671304e+000 -7.086498e+000
      endloop
   endfacet
   facet normal 1.000000e+000 -1.477800e-016 1.267106e-016
      outer loop
         vertex -1.370172e+000 -4.671304e+000 -7.086498e+000
         vertex -1.370172e+000 -4.666121e+000 -6.845953e+000
         vertex -1.370172e+000 -4.691029e+000 -6.888355e+000
      endloop
   endfacet
   facet normal 1.000000e+000 -1.477800e-016 1.267106e-016
      outer loop
         vertex -1.370172e+000 -4.671304e+000 -7.086498e+000
         vertex -1.370172e+000 -4.691029e+000 -6.888355e+000
         vertex -1.370172e+000 -4.733799e+000 -6.912622e+000
      endloop
   endfacet
   facet normal 1.000000e+000 -1.477800e-016 1.267106e-016
      outer loop
         vertex -1.370172e+000 -4.671304e+000 -7.086498e+000
         vertex -1.370172e+000 -4.733799e+000 -6.912622e+000
         vertex -1.370172e+000 -4.848075e+000 -7.085170e+000
      endloop
   endfacet
   facet normal 1.000000e+000 -1.477800e-016 1.267106e-016
      outer loop
         vertex -1.370172e+000 -4.848075e+000 -7.085170e+000
         vertex -1.370172e+000 -4.733799e+000 -6.912622e+000
         vertex -1.370172e+000 -4.782974e+000 -6.912252e+000
      endloop
   endfacet
   facet normal 1.000000e+000 -1.477800e-016 1.267106e-016
      outer loop
         vertex -1.370172e+000 -4.848075e+000 -7.085170e+000
         vertex -1.370172e+000 -4.782974e+000 -6.912252e+000
         vertex -1.370172e+000 -4.825375e+000 -6.887345e+000
      endloop
   endfacet
   facet normal 1.000000e+000 -1.477800e-016 1.267106e-016
      outer loop
         vertex -1.370172e+000 -4.781595e+000 -6.728732e+000
         vertex -1.370172e+000 -2.606700e-001 -2.390733e+000
         vertex -1.370172e+000 -4.824366e+000 -6.752999e+000
      endloop
   endfacet
   facet normal 1.000000e+000 -1.477800e-016 1.267106e-016
      outer loop
         vertex -1.370172e+000 -4.824366e+000 -6.752999e+000
         vertex -1.370172e+000 -2.606700e-001 -2.390733e+000
         vertex -1.370172e+000 -3.085656e-001 -2.306316e+000
      endloop
   endfacet
   facet normal 1.000000e+000 -1.477800e-016 1.267106e-016
      outer loop
         vertex -1.370172e+000 -4.824366e+000 -6.752999e+000
         vertex -1.370172e+000 -3.085656e-001 -2.306316e+000
         vertex -1.370172e+000 -5.022191e+000 -6.730299e+000
      endloop
   endfacet
   facet normal 1.000000e+000 -1.477800e-016 1.267106e-016
      outer loop
         vertex -1.370172e+000 -5.022191e+000 -6.730299e+000
         vertex -1.370172e+000 -3.085656e-001 -2.306316e+000
         vertex -1.370172e+000 -3.078363e-001 -2.209262e+000
      endloop
   endfacet
   facet normal 1.000000e+000 -1.477800e-016 1.267106e-016
      outer loop
         vertex -1.370172e+000 -5.022191e+000 -6.730299e+000
         vertex -1.370172e+000 -3.078363e-001 -2.209262e+000
         vertex -1.370172e+000 -2.134885e-001 -1.993329e+000
      endloop
   endfacet
   facet normal 1.000000e+000 -1.477800e-016 1.267106e-016
      outer loop
         vertex -1.370172e+000 -2.134885e-001 -1.993329e+000
         vertex -1.370172e+000 -3.078363e-001 -2.209262e+000
         vertex -1.370172e+000 -2.586775e-001 -2.125575e+000
      endloop
   endfacet
   facet normal 1.000000e+000 -1.477800e-016 1.267106e-016
      outer loop
         vertex -1.370172e+000 -2.134885e-001 -1.993329e+000
         vertex -1.370172e+000 -2.586775e-001 -2.125575e+000
         vertex -1.370172e+000 -1.742612e-001 -2.077679e+000
      endloop
   endfacet
   facet normal 1.000000e+000 -1.477800e-016 1.267106e-016
      outer loop
         vertex -1.370172e+000 -1.742612e-001 -2.077679e+000
         vertex -1.370172e+000 -7.720675e-002 -2.078409e+000
         vertex -1.370172e+000 -3.671665e-002 -1.994657e+000
      endloop
   endfacet
   facet normal 1.000000e+000 -1.477800e-016 1.267106e-016
      outer loop
         vertex -1.370172e+000 -3.671665e-002 -1.994657e+000
         vertex -1.370172e+000 -7.720675e-002 -2.078409e+000
         vertex -1.370172e+000 6.480129e-003 -2.127568e+000
      endloop
   endfacet
   facet normal 1.000000e+000 -1.477800e-016 1.267106e-016
      outer loop
         vertex -1.370172e+000 -3.671665e-002 -1.994657e+000
         vertex -1.370172e+000 6.480129e-003 -2.127568e+000
         vertex -1.370172e+000 1.387267e-001 -2.172757e+000
      endloop
   endfacet
   facet normal 1.000000e+000 -1.477800e-016 1.267106e-016
      outer loop
         vertex -1.370172e+000 1.387267e-001 -2.172757e+000
         vertex -1.370172e+000 6.480129e-003 -2.127568e+000
         vertex -1.370172e+000 5.437574e-002 -2.211984e+000
      endloop
   endfacet
   facet normal 1.000000e+000 -1.477800e-016 1.267106e-016
      outer loop
         vertex -1.370172e+000 1.387267e-001 -2.172757e+000
         vertex -1.370172e+000 5.437574e-002 -2.211984e+000
         vertex -1.370172e+000 1.373982e-001 -2.349529e+000
      endloop
   endfacet
   facet normal 1.000000e+000 -1.477800e-016 1.267106e-016
      outer loop
         vertex -1.370172e+000 1.373982e-001 -2.349529e+000
         vertex -1.370172e+000 5.437574e-002 -2.211984e+000
         vertex -1.370172e+000 5.364639e-002 -2.309038e+000
      endloop
   endfacet
   facet normal 1.000000e+000 -1.477800e-016 1.267106e-016
      outer loop
         vertex -1.370172e+000 1.373982e-001 -2.349529e+000
         vertex -1.370172e+000 5.364639e-002 -2.309038e+000
         vertex -1.370172e+000 4.487555e-003 -2.392725e+000
      endloop
   endfacet
   facet normal 1.000000e+000 -1.477800e-016 1.267106e-016
      outer loop
         vertex -1.370172e+000 -7.992869e-002 -2.440621e+000
         vertex -1.370172e+000 -4.671304e+000 -7.086498e+000
         vertex -1.370172e+000 4.487555e-003 -2.392725e+000
      endloop
   endfacet
   facet normal 1.000000e+000 -1.477800e-016 1.267106e-016
      outer loop
         vertex -1.370172e+000 4.487555e-003 -2.392725e+000
         vertex -1.370172e+000 -4.671304e+000 -7.086498e+000
         vertex -1.370172e+000 1.373982e-001 -2.349529e+000
      endloop
   endfacet
   facet normal 1.000000e+000 -1.477800e-016 1.267106e-016
      outer loop
         vertex -1.370172e+000 -4.848075e+000 -7.085170e+000
         vertex -1.370172e+000 -4.825375e+000 -6.887345e+000
         vertex -1.370172e+000 -5.023519e+000 -6.907070e+000
      endloop
   endfacet
   facet normal 1.000000e+000 -1.477800e-016 1.267106e-016
      outer loop
         vertex -1.370172e+000 -5.023519e+000 -6.907070e+000
         vertex -1.370172e+000 -4.825375e+000 -6.887345e+000
         vertex -1.370172e+000 -4.849642e+000 -6.844574e+000
      endloop
   endfacet
   facet normal 1.000000e+000 -1.477800e-016 1.267106e-016
      outer loop
         vertex -1.370172e+000 -5.023519e+000 -6.907070e+000
         vertex -1.370172e+000 -4.849642e+000 -6.844574e+000
         vertex -1.370172e+000 -5.022191e+000 -6.730299e+000
      endloop
   endfacet
   facet normal 1.000000e+000 -1.477800e-016 1.267106e-016
      outer loop
         vertex -1.370172e+000 -5.022191e+000 -6.730299e+000
         vertex -1.370172e+000 -4.849642e+000 -6.844574e+000
         vertex -1.370172e+000 -4.849273e+000 -6.795400e+000
      endloop
   endfacet
   facet normal 1.000000e+000 -1.477800e-016 1.267106e-016
      outer loop
         vertex -1.370172e+000 -5.022191e+000 -6.730299e+000
         vertex -1.370172e+000 -4.849273e+000 -6.795400e+000
         vertex -1.370172e+000 -4.824366e+000 -6.752999e+000
      endloop
   endfacet
   facet normal 1.000000e+000 -1.477800e-016 1.267106e-016
      outer loop
         vertex -1.370172e+000 -3.671665e-002 -1.994657e+000
         vertex -1.370172e+000 -2.134885e-001 -1.993329e+000
         vertex -1.370172e+000 -1.742612e-001 -2.077679e+000
      endloop
   endfacet
   facet normal -1.369650e-016 -9.966754e-001 -8.147512e-002
      outer loop
         vertex -1.370172e+000 -4.665752e+000 -6.796779e+000
         vertex -1.495172e+000 -4.665752e+000 -6.796779e+000
         vertex -1.370172e+000 -4.666121e+000 -6.845953e+000
      endloop
   endfacet
   facet normal -1.593117e-016 -9.953384e-001 9.644437e-002
      outer loop
         vertex -1.370172e+000 -4.666121e+000 -6.845953e+000
         vertex -1.495172e+000 -4.665752e+000 -6.796779e+000
         vertex -1.495172e+000 -4.666121e+000 -6.845953e+000
      endloop
   endfacet
   facet normal -1.877800e-016 -9.038838e-001 4.277782e-001
      outer loop
         vertex -1.370172e+000 -4.666121e+000 -6.845953e+000
         vertex -1.495172e+000 -4.666121e+000 -6.845953e+000
         vertex -1.370172e+000 -4.691029e+000 -6.888355e+000
      endloop
   endfacet
   facet normal -1.939016e-016 -8.137661e-001 5.811924e-001
      outer loop
         vertex -1.370172e+000 -4.691029e+000 -6.888355e+000
         vertex -1.495172e+000 -4.666121e+000 -6.845953e+000
         vertex -1.495172e+000 -4.691029e+000 -6.888355e+000
      endloop
   endfacet
   facet normal -1.882795e-016 -5.688972e-001 8.224086e-001
      outer loop
         vertex -1.370172e+000 -4.691029e+000 -6.888355e+000
         vertex -1.495172e+000 -4.691029e+000 -6.888355e+000
         vertex -1.370172e+000 -4.733799e+000 -6.912622e+000
      endloop
   endfacet
   facet normal -1.765358e-016 -4.141459e-001 9.102105e-001
      outer loop
         vertex -1.370172e+000 -4.733799e+000 -6.912622e+000
         vertex -1.495172e+000 -4.691029e+000 -6.888355e+000
         vertex -1.495172e+000 -4.733799e+000 -6.912622e+000
      endloop
   endfacet
   facet normal -1.383297e-016 -8.147512e-002 9.966754e-001
      outer loop
         vertex -1.370172e+000 -4.733799e+000 -6.912622e+000
         vertex -1.495172e+000 -4.733799e+000 -6.912622e+000
         vertex -1.370172e+000 -4.782974e+000 -6.912252e+000
      endloop
   endfacet
   facet normal -1.118674e-016 9.644437e-002 9.953384e-001
      outer loop
         vertex -1.370172e+000 -4.782974e+000 -6.912252e+000
         vertex -1.495172e+000 -4.733799e+000 -6.912622e+000
         vertex -1.495172e+000 -4.782974e+000 -6.912252e+000
      endloop
   endfacet
   facet normal -5.131458e-017 4.277782e-001 9.038838e-001
      outer loop
         vertex -1.370172e+000 -4.782974e+000 -6.912252e+000
         vertex -1.495172e+000 -4.782974e+000 -6.912252e+000
         vertex -1.370172e+000 -4.825375e+000 -6.887345e+000
      endloop
   endfacet
   facet normal -1.722415e-017 5.811924e-001 8.137661e-001
      outer loop
         vertex -1.370172e+000 -4.825375e+000 -6.887345e+000
         vertex -1.495172e+000 -4.782974e+000 -6.912252e+000
         vertex -1.495172e+000 -4.825375e+000 -6.887345e+000
      endloop
   endfacet
   facet normal 4.945027e-017 8.224086e-001 5.688972e-001
      outer loop
         vertex -1.370172e+000 -4.825375e+000 -6.887345e+000
         vertex -1.495172e+000 -4.825375e+000 -6.887345e+000
         vertex -1.370172e+000 -4.849642e+000 -6.844574e+000
      endloop
   endfacet
   facet normal 8.203427e-017 9.102105e-001 4.141459e-001
      outer loop
         vertex -1.370172e+000 -4.849642e+000 -6.844574e+000
         vertex -1.495172e+000 -4.825375e+000 -6.887345e+000
         vertex -1.495172e+000 -4.849642e+000 -6.844574e+000
      endloop
   endfacet
   facet normal 1.369650e-016 9.966754e-001 8.147512e-002
      outer loop
         vertex -1.370172e+000 -4.849642e+000 -6.844574e+000
         vertex -1.495172e+000 -4.849642e+000 -6.844574e+000
         vertex -1.370172e+000 -4.849273e+000 -6.795400e+000
      endloop
   endfacet
   facet normal 1.593117e-016 9.953384e-001 -9.644437e-002
      outer loop
         vertex -1.370172e+000 -4.849273e+000 -6.795400e+000
         vertex -1.495172e+000 -4.849642e+000 -6.844574e+000
         vertex -1.495172e+000 -4.849273e+000 -6.795400e+000
      endloop
   endfacet
   facet normal 1.877800e-016 9.038838e-001 -4.277782e-001
      outer loop
         vertex -1.370172e+000 -4.849273e+000 -6.795400e+000
         vertex -1.495172e+000 -4.849273e+000 -6.795400e+000
         vertex -1.370172e+000 -4.824366e+000 -6.752999e+000
      endloop
   endfacet
   facet normal 1.939016e-016 8.137661e-001 -5.811924e-001
      outer loop
         vertex -1.370172e+000 -4.824366e+000 -6.752999e+000
         vertex -1.495172e+000 -4.849273e+000 -6.795400e+000
         vertex -1.495172e+000 -4.824366e+000 -6.752999e+000
      endloop
   endfacet
   facet normal 1.882795e-016 5.688972e-001 -8.224086e-001
      outer loop
         vertex -1.370172e+000 -4.824366e+000 -6.752999e+000
         vertex -1.495172e+000 -4.824366e+000 -6.752999e+000
         vertex -1.370172e+000 -4.781595e+000 -6.728732e+000
      endloop
   endfacet
   facet normal 1.765358e-016 4.141459e-001 -9.102105e-001
      outer loop
         vertex -1.370172e+000 -4.781595e+000 -6.728732e+000
         vertex -1.495172e+000 -4.824366e+000 -6.752999e+000
         vertex -1.495172e+000 -4.781595e+000 -6.728732e+000
      endloop
   endfacet
   facet normal 1.383297e-016 8.147512e-002 -9.966754e-001
      outer loop
         vertex -1.370172e+000 -4.781595e+000 -6.728732e+000
         vertex -1.495172e+000 -4.781595e+000 -6.728732e+000
         vertex -1.370172e+000 -4.732420e+000 -6.729101e+000
      endloop
   endfacet
   facet normal 1.118674e-016 -9.644437e-002 -9.953384e-001
      outer loop
         vertex -1.370172e+000 -4.732420e+000 -6.729101e+000
         vertex -1.495172e+000 -4.781595e+000 -6.728732e+000
         vertex -1.495172e+000 -4.732420e+000 -6.729101e+000
      endloop
   endfacet
   facet normal 5.131458e-017 -4.277782e-001 -9.038838e-001
      outer loop
         vertex -1.370172e+000 -4.732420e+000 -6.729101e+000
         vertex -1.495172e+000 -4.732420e+000 -6.729101e+000
         vertex -1.370172e+000 -4.690019e+000 -6.754008e+000
      endloop
   endfacet
   facet normal 1.722415e-017 -5.811924e-001 -8.137661e-001
      outer loop
         vertex -1.370172e+000 -4.690019e+000 -6.754008e+000
         vertex -1.495172e+000 -4.732420e+000 -6.729101e+000
         vertex -1.495172e+000 -4.690019e+000 -6.754008e+000
      endloop
   endfacet
   facet normal -4.945027e-017 -8.224086e-001 -5.688972e-001
      outer loop
         vertex -1.370172e+000 -4.690019e+000 -6.754008e+000
         vertex -1.495172e+000 -4.690019e+000 -6.754008e+000
         vertex -1.370172e+000 -4.665752e+000 -6.796779e+000
      endloop
   endfacet
   facet normal -8.203427e-017 -9.102105e-001 -4.141459e-001
      outer loop
         vertex -1.370172e+000 -4.665752e+000 -6.796779e+000
         vertex -1.495172e+000 -4.690019e+000 -6.754008e+000
         vertex -1.495172e+000 -4.665752e+000 -6.796779e+000
      endloop
   endfacet
   facet normal -1.369650e-016 -9.966754e-001 -8.147512e-002
      outer loop
         vertex -1.370172e+000 5.437574e-002 -2.211984e+000
         vertex -1.495172e+000 5.437574e-002 -2.211984e+000
         vertex -1.370172e+000 5.364639e-002 -2.309038e+000
      endloop
   endfacet
   facet normal -1.593117e-016 -9.953384e-001 9.644437e-002
      outer loop
         vertex -1.370172e+000 5.364639e-002 -2.309038e+000
         vertex -1.495172e+000 5.437574e-002 -2.211984e+000
         vertex -1.495172e+000 5.364639e-002 -2.309038e+000
      endloop
   endfacet
   facet normal -1.877800e-016 -9.038838e-001 4.277782e-001
      outer loop
         vertex -1.370172e+000 5.364639e-002 -2.309038e+000
         vertex -1.495172e+000 5.364639e-002 -2.309038e+000
         vertex -1.370172e+000 4.487555e-003 -2.392725e+000
      endloop
   endfacet
   facet normal -1.939016e-016 -8.137661e-001 5.811924e-001
      outer loop
         vertex -1.370172e+000 4.487555e-003 -2.392725e+000
         vertex -1.495172e+000 5.364639e-002 -2.309038e+000
         vertex -1.495172e+000 4.487555e-003 -2.392725e+000
      endloop
   endfacet
   facet normal -1.882795e-016 -5.688972e-001 8.224086e-001
      outer loop
         vertex -1.370172e+000 4.487555e-003 -2.392725e+000
         vertex -1.495172e+000 4.487555e-003 -2.392725e+000
         vertex -1.370172e+000 -7.992869e-002 -2.440621e+000
      endloop
   endfacet
   facet normal -1.765358e-016 -4.141459e-001 9.102105e-001
      outer loop
         vertex -1.370172e+000 -7.992869e-002 -2.440621e+000
         vertex -1.495172e+000 4.487555e-003 -2.392725e+000
         vertex -1.495172e+000 -7.992869e-002 -2.440621e+000
      endloop
   endfacet
   facet normal -1.383297e-016 -8.147512e-002 9.966754e-001
      outer loop
         vertex -1.370172e+000 -7.992869e-002 -2.440621e+000
         vertex -1.495172e+000 -7.992869e-002 -2.440621e+000
         vertex -1.370172e+000 -1.769831e-001 -2.439891e+000
      endloop
   endfacet
   facet normal -1.118674e-016 9.644437e-002 9.953384e-001
      outer loop
         vertex -1.370172e+000 -1.769831e-001 -2.439891e+000
         vertex -1.495172e+000 -7.992869e-002 -2.440621e+000
         vertex -1.495172e+000 -1.769831e-001 -2.439891e+000
      endloop
   endfacet
   facet normal -5.131458e-017 4.277782e-001 9.038838e-001
      outer loop
         vertex -1.370172e+000 -1.769831e-001 -2.439891e+000
         vertex -1.495172e+000 -1.769831e-001 -2.439891e+000
         vertex -1.370172e+000 -2.606700e-001 -2.390733e+000
      endloop
   endfacet
   facet normal -1.722415e-017 5.811924e-001 8.137661e-001
      outer loop
         vertex -1.370172e+000 -2.606700e-001 -2.390733e+000
         vertex -1.495172e+000 -1.769831e-001 -2.439891e+000
         vertex -1.495172e+000 -2.606700e-001 -2.390733e+000
      endloop
   endfacet
   facet normal 4.945027e-017 8.224086e-001 5.688972e-001
      outer loop
         vertex -1.370172e+000 -2.606700e-001 -2.390733e+000
         vertex -1.495172e+000 -2.606700e-001 -2.390733e+000
         vertex -1.370172e+000 -3.085656e-001 -2.306316e+000
      endloop
   endfacet
   facet normal 8.203427e-017 9.102105e-001 4.141459e-001
      outer loop
         vertex -1.370172e+000 -3.085656e-001 -2.306316e+000
         vertex -1.495172e+000 -2.606700e-001 -2.390733e+000
         vertex -1.495172e+000 -3.085656e-001 -2.306316e+000
      endloop
   endfacet
   facet normal 1.369650e-016 9.966754e-001 8.147512e-002
      outer loop
         vertex -1.370172e+000 -3.085656e-001 -2.306316e+000
         vertex -1.495172e+000 -3.085656e-001 -2.306316e+000
         vertex -1.370172e+000 -3.078363e-001 -2.209262e+000
      endloop
   endfacet
   facet normal 1.593117e-016 9.953384e-001 -9.644437e-002
      outer loop
         vertex -1.370172e+000 -3.078363e-001 -2.209262e+000
         vertex -1.495172e+000 -3.085656e-001 -2.306316e+000
         vertex -1.495172e+000 -3.078363e-001 -2.209262e+000
      endloop
   endfacet
   facet normal 1.877800e-016 9.038838e-001 -4.277782e-001
      outer loop
         vertex -1.370172e+000 -3.078363e-001 -2.209262e+000
         vertex -1.495172e+000 -3.078363e-001 -2.209262e+000
         vertex -1.370172e+000 -2.586775e-001 -2.125575e+000
      endloop
   endfacet
   facet normal 1.939016e-016 8.137661e-001 -5.811924e-001
      outer loop
         vertex -1.370172e+000 -2.586775e-001 -2.125575e+000
         vertex -1.495172e+000 -3.078363e-001 -2.209262e+000
         vertex -1.495172e+000 -2.586775e-001 -2.125575e+000
      endloop
   endfacet
   facet normal 1.882795e-016 5.688972e-001 -8.224086e-001
      outer loop
         vertex -1.370172e+000 -2.586775e-001 -2.125575e+000
         vertex -1.495172e+000 -2.586775e-001 -2.125575e+000
         vertex -1.370172e+000 -1.742612e-001 -2.077679e+000
      endloop
   endfacet
   facet normal 1.765358e-016 4.141459e-001 -9.102105e-001
      outer loop
         vertex -1.370172e+000 -1.742612e-001 -2.077679e+000
         vertex -1.495172e+000 -2.586775e-001 -2.125575e+000
         vertex -1.495172e+000 -1.742612e-001 -2.077679e+000
      endloop
   endfacet
   facet normal 1.383297e-016 8.147512e-002 -9.966754e-001
      outer loop
         vertex -1.370172e+000 -1.742612e-001 -2.077679e+000
         vertex -1.495172e+000 -1.742612e-001 -2.077679e+000
         vertex -1.370172e+000 -7.720675e-002 -2.078409e+000
      endloop
   endfacet
   facet normal 1.118674e-016 -9.644437e-002 -9.953384e-001
      outer loop
         vertex -1.370172e+000 -7.720675e-002 -2.078409e+000
         vertex -1.495172e+000 -1.742612e-001 -2.077679e+000
         vertex -1.495172e+000 -7.720675e-002 -2.078409e+000
      endloop
   endfacet
   facet normal 5.131458e-017 -4.277782e-001 -9.038838e-001
      outer loop
         vertex -1.370172e+000 -7.720675e-002 -2.078409e+000
         vertex -1.495172e+000 -7.720675e-002 -2.078409e+000
         vertex -1.370172e+000 6.480129e-003 -2.127568e+000
      endloop
   endfacet
   facet normal 1.722415e-017 -5.811924e-001 -8.137661e-001
      outer loop
         vertex -1.370172e+000 6.480129e-003 -2.127568e+000
         vertex -1.495172e+000 -7.720675e-002 -2.078409e+000
         vertex -1.495172e+000 6.480129e-003 -2.127568e+000
      endloop
   endfacet
   facet normal -4.945027e-017 -8.224086e-001 -5.688972e-001
      outer loop
         vertex -1.370172e+000 6.480129e-003 -2.127568e+000
         vertex -1.495172e+000 6.480129e-003 -2.127568e+000
         vertex -1.370172e+000 5.437574e-002 -2.211984e+000
      endloop
   endfacet
   facet normal -8.203427e-017 -9.102105e-001 -4.141459e-001
      outer loop
         vertex -1.370172e+000 5.437574e-002 -2.211984e+000
         vertex -1.495172e+000 6.480129e-003 -2.127568e+000
         vertex -1.495172e+000 5.437574e-002 -2.211984e+000
      endloop
   endfacet
   facet normal 1.255965e-016 -7.514418e-003 -9.999717e-001
      outer loop
         vertex -1.370172e+000 -4.671304e+000 -7.086498e+000
         vertex -1.370172e+000 -4.848075e+000 -7.085170e+000
         vertex -1.495172e+000 -4.671304e+000 -7.086498e+000
      endloop
   endfacet
   facet normal 1.255965e-016 -7.514418e-003 -9.999717e-001
      outer loop
         vertex -1.495172e+000 -4.671304e+000 -7.086498e+000
         vertex -1.370172e+000 -4.848075e+000 -7.085170e+000
         vertex -1.495172e+000 -4.848075e+000 -7.085170e+000
      endloop
   endfacet
   facet normal -1.487280e-016 -9.999717e-001 7.514418e-003
      outer loop
         vertex -1.370172e+000 -5.023519e+000 -6.907070e+000
         vertex -1.370172e+000 -5.022191e+000 -6.730299e+000
         vertex -1.495172e+000 -5.023519e+000 -6.907070e+000
      endloop
   endfacet
   facet normal -1.487280e-016 -9.999717e-001 7.514418e-003
      outer loop
         vertex -1.495172e+000 -5.023519e+000 -6.907070e+000
         vertex -1.370172e+000 -5.022191e+000 -6.730299e+000
         vertex -1.495172e+000 -5.022191e+000 -6.730299e+000
      endloop
   endfacet
   facet normal 1.487280e-016 9.999717e-001 -7.514418e-003
      outer loop
         vertex -1.370172e+000 1.387267e-001 -2.172757e+000
         vertex -1.370172e+000 1.373982e-001 -2.349529e+000
         vertex -1.495172e+000 1.387267e-001 -2.172757e+000
      endloop
   endfacet
   facet normal 1.487280e-016 9.999717e-001 -7.514418e-003
      outer loop
         vertex -1.495172e+000 1.387267e-001 -2.172757e+000
         vertex -1.370172e+000 1.373982e-001 -2.349529e+000
         vertex -1.495172e+000 1.373982e-001 -2.349529e+000
      endloop
   endfacet
   facet normal -1.255965e-016 7.514418e-003 9.999717e-001
      outer loop
         vertex -1.370172e+000 -2.134885e-001 -1.993329e+000
         vertex -1.370172e+000 -3.671665e-002 -1.994657e+000
         vertex -1.495172e+000 -2.134885e-001 -1.993329e+000
      endloop
   endfacet
   facet normal -1.255965e-016 7.514418e-003 9.999717e-001
      outer loop
         vertex -1.495172e+000 -2.134885e-001 -1.993329e+000
         vertex -1.370172e+000 -3.671665e-002 -1.994657e+000
         vertex -1.495172e+000 -3.671665e-002 -1.994657e+000
      endloop
   endfacet
endsolid