solid plate
   facet normal -1.000000e+000 0.000000e+000 0.000000e+000
      outer loop
         vertex 5.000010e-001 3.999993e-001 0.000000e+000
         vertex 5.000010e-001 3.999993e-001 1.000000e+001
         vertex 5.000010e-001 8.039999e+001 0.000000e+000
      endloop
   endfacet
   facet normal -1.000000e+000 0.000000e+000 0.000000e+000
      outer loop
         vertex 5.000010e-001 8.039999e+001 0.000000e+000
         vertex 5.000010e-001 3.999993e-001 1.000000e+001
         vertex 5.000010e-001 8.039999e+001 1.000000e+001
      endloop
   endfacet
   facet normal 0.000000e+000 -1.000000e+000 0.000000e+000
      outer loop
         vertex 1.005000e+002 3.999993e-001 0.000000e+000
         vertex 1.005000e+002 3.999993e-001 1.000000e+001
         vertex 5.000010e-001 3.999993e-001 0.000000e+000
      endloop
   endfacet
   facet normal 0.000000e+000 -1.000000e+000 0.000000e+000
      outer loop
         vertex 5.000010e-001 3.999993e-001 0.000000e+000
         vertex 1.005000e+002 3.999993e-001 1.000000e+001
         vertex 5.000010e-001 3.999993e-001 1.000000e+001
      endloop
   endfacet
   facet normal 1.000000e+000 0.000000e+000 0.000000e+000
      outer loop
         vertex 1.005000e+002 8.039999e+001 0.000000e+000
         vertex 1.005000e+002 8.039999e+001 1.000000e+001
         vertex 1.005000e+002 3.999993e-001 0.000000e+000
      endloop
   endfacet
   facet normal 1.000000e+000 0.000000e+000 0.000000e+000
      outer loop
         vertex 1.005000e+002 3.999993e-001 0.000000e+000
         vertex 1.005000e+002 8.039999e+001 1.000000e+001
         vertex 1.005000e+002 3.999993e-001 1.000000e+001
      endloop
   endfacet
   facet normal 0.000000e+000 1.000000e+000 0.000000e+000
      outer loop
         vertex 5.000010e-001 8.039999e+001 0.000000e+000
         vertex 5.000010e-001 8.039999e+001 1.000000e+001
         vertex 1.005000e+002 8.039999e+001 0.000000e+000
      endloop
   endfacet
   facet normal 0.000000e+000 1.000000e+000 0.000000e+000
      outer loop
         vertex 1.005000e+002 8.039999e+001 0.000000e+000
         vertex 5.000010e-001 8.039999e+001 1.000000e+001
         vertex 1.005000e+002 8.039999e+001 1.000000e+001
      endloop
   endfacet
   facet normal 0.000000e+000 0.000000e+000 1.000000e+000
      outer loop
         vertex 5.000010e-001 3.999993e-001 1.000000e+001
         vertex 1.005000e+002 3.999993e-001 1.000000e+001
         vertex 5.000010e-001 8.039999e+001 1.000000e+001
      endloop
   endfacet
   facet normal 0.000000e+000 0.000000e+000 1.000000e+000
      outer loop
         vertex 5.000010e-001 8.039999e+001 1.000000e+001
         vertex 1.005000e+002 3.999993e-001 1.000000e+001
         vertex 1.005000e+002 8.039999e+001 1.000000e+001
      endloop
   endfacet
   facet normal 0.000000e+000 0.000000e+000 -1.000000e+000
      outer loop
         vertex 5.000010e-001 8.039999e+001 0.000000e+000
         vertex 1.005000e+002 8.039999e+001 0.000000e+000
         vertex 5.000010e-001 3.999993e-001 0.000000e+000
      endloop
   endfacet
   facet normal 0.000000e+000 0.000000e+000 -1.000000e+000
      outer loop
         vertex 5.000010e-001 3.999993e-001 0.000000e+000
         vertex 1.005000e+002 8.039999e+001 0.000000e+000
         vertex 1.005000e+002 3.999993e-001 0.000000e+000
      endloop
   endfacet
endsolid